<mxfile host="app.diagrams.net" modified="2023-07-26T18:18:55.501Z" agent="Mozilla/5.0 (Windows NT 10.0; Win64; x64) AppleWebKit/537.36 (KHTML, like Gecko) Chrome/115.0.0.0 Safari/537.36" etag="WaMmcCOfCxAfG3EOtKSy" version="21.6.5" type="device">
  <diagram name="Página-1" id="QqE6yfjlqPjVZ56PIAN7">
    <mxGraphModel dx="1050" dy="542" grid="1" gridSize="10" guides="1" tooltips="1" connect="1" arrows="1" fold="1" page="1" pageScale="1" pageWidth="827" pageHeight="1169" math="0" shadow="0">
      <root>
        <mxCell id="0" />
        <mxCell id="1" parent="0" />
        <mxCell id="uvc1Zter9yhJ50SOgHwf-9" style="edgeStyle=orthogonalEdgeStyle;rounded=0;orthogonalLoop=1;jettySize=auto;html=1;entryX=0;entryY=0.5;entryDx=0;entryDy=0;endArrow=none;endFill=0;" parent="1" source="uvc1Zter9yhJ50SOgHwf-1" target="uvc1Zter9yhJ50SOgHwf-8" edge="1">
          <mxGeometry relative="1" as="geometry" />
        </mxCell>
        <mxCell id="uvc1Zter9yhJ50SOgHwf-1" value="Filme" style="rounded=0;whiteSpace=wrap;html=1;" parent="1" vertex="1">
          <mxGeometry x="60" y="160" width="120" height="60" as="geometry" />
        </mxCell>
        <mxCell id="uvc1Zter9yhJ50SOgHwf-2" value="Genero" style="rounded=0;whiteSpace=wrap;html=1;" parent="1" vertex="1">
          <mxGeometry x="60" y="380" width="120" height="60" as="geometry" />
        </mxCell>
        <mxCell id="uvc1Zter9yhJ50SOgHwf-4" style="edgeStyle=orthogonalEdgeStyle;orthogonalLoop=1;jettySize=auto;html=1;entryX=0.5;entryY=0;entryDx=0;entryDy=0;curved=1;endArrow=none;endFill=0;" parent="1" source="uvc1Zter9yhJ50SOgHwf-3" target="uvc1Zter9yhJ50SOgHwf-2" edge="1">
          <mxGeometry relative="1" as="geometry" />
        </mxCell>
        <mxCell id="uvc1Zter9yhJ50SOgHwf-5" style="edgeStyle=orthogonalEdgeStyle;rounded=0;orthogonalLoop=1;jettySize=auto;html=1;endArrow=none;endFill=0;" parent="1" source="uvc1Zter9yhJ50SOgHwf-3" target="uvc1Zter9yhJ50SOgHwf-1" edge="1">
          <mxGeometry relative="1" as="geometry" />
        </mxCell>
        <mxCell id="uvc1Zter9yhJ50SOgHwf-3" value="possui" style="rhombus;whiteSpace=wrap;html=1;" parent="1" vertex="1">
          <mxGeometry x="80" y="260" width="80" height="80" as="geometry" />
        </mxCell>
        <mxCell id="uvc1Zter9yhJ50SOgHwf-6" value="1" style="text;html=1;strokeColor=none;fillColor=none;align=center;verticalAlign=middle;whiteSpace=wrap;rounded=0;" parent="1" vertex="1">
          <mxGeometry x="110" y="350" width="60" height="30" as="geometry" />
        </mxCell>
        <mxCell id="uvc1Zter9yhJ50SOgHwf-7" value="N" style="text;html=1;strokeColor=none;fillColor=none;align=center;verticalAlign=middle;whiteSpace=wrap;rounded=0;" parent="1" vertex="1">
          <mxGeometry x="110" y="220" width="60" height="30" as="geometry" />
        </mxCell>
        <mxCell id="uvc1Zter9yhJ50SOgHwf-8" value="Lançamento" style="ellipse;whiteSpace=wrap;html=1;" parent="1" vertex="1">
          <mxGeometry x="240" y="90" width="120" height="80" as="geometry" />
        </mxCell>
        <mxCell id="uvc1Zter9yhJ50SOgHwf-11" style="edgeStyle=orthogonalEdgeStyle;rounded=0;orthogonalLoop=1;jettySize=auto;html=1;entryX=1;entryY=0.5;entryDx=0;entryDy=0;endArrow=none;endFill=0;" parent="1" source="uvc1Zter9yhJ50SOgHwf-10" target="uvc1Zter9yhJ50SOgHwf-1" edge="1">
          <mxGeometry relative="1" as="geometry" />
        </mxCell>
        <mxCell id="uvc1Zter9yhJ50SOgHwf-10" value="nome" style="ellipse;whiteSpace=wrap;html=1;" parent="1" vertex="1">
          <mxGeometry x="240" y="210" width="120" height="80" as="geometry" />
        </mxCell>
        <mxCell id="uvc1Zter9yhJ50SOgHwf-13" style="edgeStyle=orthogonalEdgeStyle;rounded=0;orthogonalLoop=1;jettySize=auto;html=1;entryX=1;entryY=0.5;entryDx=0;entryDy=0;endArrow=none;endFill=0;" parent="1" source="uvc1Zter9yhJ50SOgHwf-12" target="uvc1Zter9yhJ50SOgHwf-2" edge="1">
          <mxGeometry relative="1" as="geometry" />
        </mxCell>
        <mxCell id="uvc1Zter9yhJ50SOgHwf-12" value="nome" style="ellipse;whiteSpace=wrap;html=1;" parent="1" vertex="1">
          <mxGeometry x="240" y="370" width="120" height="80" as="geometry" />
        </mxCell>
        <mxCell id="1h_y3ZwGY21u_O0IPoco-1" value="Conceitual" style="rounded=0;whiteSpace=wrap;html=1;fillColor=#f8cecc;strokeColor=#b85450;" vertex="1" parent="1">
          <mxGeometry x="80" y="40" width="120" height="60" as="geometry" />
        </mxCell>
        <mxCell id="1h_y3ZwGY21u_O0IPoco-2" value="Logico" style="rounded=0;whiteSpace=wrap;html=1;fillColor=#f8cecc;strokeColor=#b85450;" vertex="1" parent="1">
          <mxGeometry x="540" y="20" width="120" height="60" as="geometry" />
        </mxCell>
        <mxCell id="1h_y3ZwGY21u_O0IPoco-29" value="Genero" style="shape=table;startSize=30;container=1;collapsible=1;childLayout=tableLayout;fixedRows=1;rowLines=0;fontStyle=1;align=center;resizeLast=1;html=1;" vertex="1" parent="1">
          <mxGeometry x="390" y="120" width="180" height="90" as="geometry" />
        </mxCell>
        <mxCell id="1h_y3ZwGY21u_O0IPoco-30" value="" style="shape=tableRow;horizontal=0;startSize=0;swimlaneHead=0;swimlaneBody=0;fillColor=none;collapsible=0;dropTarget=0;points=[[0,0.5],[1,0.5]];portConstraint=eastwest;top=0;left=0;right=0;bottom=1;" vertex="1" parent="1h_y3ZwGY21u_O0IPoco-29">
          <mxGeometry y="30" width="180" height="30" as="geometry" />
        </mxCell>
        <mxCell id="1h_y3ZwGY21u_O0IPoco-31" value="PK" style="shape=partialRectangle;connectable=0;fillColor=none;top=0;left=0;bottom=0;right=0;fontStyle=1;overflow=hidden;whiteSpace=wrap;html=1;" vertex="1" parent="1h_y3ZwGY21u_O0IPoco-30">
          <mxGeometry width="30" height="30" as="geometry">
            <mxRectangle width="30" height="30" as="alternateBounds" />
          </mxGeometry>
        </mxCell>
        <mxCell id="1h_y3ZwGY21u_O0IPoco-32" value="IdGenero" style="shape=partialRectangle;connectable=0;fillColor=none;top=0;left=0;bottom=0;right=0;align=left;spacingLeft=6;fontStyle=5;overflow=hidden;whiteSpace=wrap;html=1;" vertex="1" parent="1h_y3ZwGY21u_O0IPoco-30">
          <mxGeometry x="30" width="150" height="30" as="geometry">
            <mxRectangle width="150" height="30" as="alternateBounds" />
          </mxGeometry>
        </mxCell>
        <mxCell id="1h_y3ZwGY21u_O0IPoco-33" value="" style="shape=tableRow;horizontal=0;startSize=0;swimlaneHead=0;swimlaneBody=0;fillColor=none;collapsible=0;dropTarget=0;points=[[0,0.5],[1,0.5]];portConstraint=eastwest;top=0;left=0;right=0;bottom=0;" vertex="1" parent="1h_y3ZwGY21u_O0IPoco-29">
          <mxGeometry y="60" width="180" height="30" as="geometry" />
        </mxCell>
        <mxCell id="1h_y3ZwGY21u_O0IPoco-34" value="" style="shape=partialRectangle;connectable=0;fillColor=none;top=0;left=0;bottom=0;right=0;editable=1;overflow=hidden;whiteSpace=wrap;html=1;" vertex="1" parent="1h_y3ZwGY21u_O0IPoco-33">
          <mxGeometry width="30" height="30" as="geometry">
            <mxRectangle width="30" height="30" as="alternateBounds" />
          </mxGeometry>
        </mxCell>
        <mxCell id="1h_y3ZwGY21u_O0IPoco-35" value="Nome&amp;nbsp;" style="shape=partialRectangle;connectable=0;fillColor=none;top=0;left=0;bottom=0;right=0;align=left;spacingLeft=6;overflow=hidden;whiteSpace=wrap;html=1;" vertex="1" parent="1h_y3ZwGY21u_O0IPoco-33">
          <mxGeometry x="30" width="150" height="30" as="geometry">
            <mxRectangle width="150" height="30" as="alternateBounds" />
          </mxGeometry>
        </mxCell>
        <mxCell id="1h_y3ZwGY21u_O0IPoco-42" value="Filme" style="shape=table;startSize=30;container=1;collapsible=1;childLayout=tableLayout;fixedRows=1;rowLines=0;fontStyle=1;align=center;resizeLast=1;html=1;whiteSpace=wrap;" vertex="1" parent="1">
          <mxGeometry x="640" y="120" width="180" height="120" as="geometry" />
        </mxCell>
        <mxCell id="1h_y3ZwGY21u_O0IPoco-43" value="" style="shape=tableRow;horizontal=0;startSize=0;swimlaneHead=0;swimlaneBody=0;fillColor=none;collapsible=0;dropTarget=0;points=[[0,0.5],[1,0.5]];portConstraint=eastwest;top=0;left=0;right=0;bottom=0;html=1;" vertex="1" parent="1h_y3ZwGY21u_O0IPoco-42">
          <mxGeometry y="30" width="180" height="30" as="geometry" />
        </mxCell>
        <mxCell id="1h_y3ZwGY21u_O0IPoco-44" value="PK" style="shape=partialRectangle;connectable=0;fillColor=none;top=0;left=0;bottom=0;right=0;fontStyle=1;overflow=hidden;html=1;whiteSpace=wrap;" vertex="1" parent="1h_y3ZwGY21u_O0IPoco-43">
          <mxGeometry width="60" height="30" as="geometry">
            <mxRectangle width="60" height="30" as="alternateBounds" />
          </mxGeometry>
        </mxCell>
        <mxCell id="1h_y3ZwGY21u_O0IPoco-45" value="IdFilme" style="shape=partialRectangle;connectable=0;fillColor=none;top=0;left=0;bottom=0;right=0;align=left;spacingLeft=6;fontStyle=5;overflow=hidden;html=1;whiteSpace=wrap;" vertex="1" parent="1h_y3ZwGY21u_O0IPoco-43">
          <mxGeometry x="60" width="120" height="30" as="geometry">
            <mxRectangle width="120" height="30" as="alternateBounds" />
          </mxGeometry>
        </mxCell>
        <mxCell id="1h_y3ZwGY21u_O0IPoco-46" value="" style="shape=tableRow;horizontal=0;startSize=0;swimlaneHead=0;swimlaneBody=0;fillColor=none;collapsible=0;dropTarget=0;points=[[0,0.5],[1,0.5]];portConstraint=eastwest;top=0;left=0;right=0;bottom=1;html=1;" vertex="1" parent="1h_y3ZwGY21u_O0IPoco-42">
          <mxGeometry y="60" width="180" height="30" as="geometry" />
        </mxCell>
        <mxCell id="1h_y3ZwGY21u_O0IPoco-47" value="FK" style="shape=partialRectangle;connectable=0;fillColor=none;top=0;left=0;bottom=0;right=0;fontStyle=1;overflow=hidden;html=1;whiteSpace=wrap;" vertex="1" parent="1h_y3ZwGY21u_O0IPoco-46">
          <mxGeometry width="60" height="30" as="geometry">
            <mxRectangle width="60" height="30" as="alternateBounds" />
          </mxGeometry>
        </mxCell>
        <mxCell id="1h_y3ZwGY21u_O0IPoco-48" value="IdGenero" style="shape=partialRectangle;connectable=0;fillColor=none;top=0;left=0;bottom=0;right=0;align=left;spacingLeft=6;fontStyle=5;overflow=hidden;html=1;whiteSpace=wrap;" vertex="1" parent="1h_y3ZwGY21u_O0IPoco-46">
          <mxGeometry x="60" width="120" height="30" as="geometry">
            <mxRectangle width="120" height="30" as="alternateBounds" />
          </mxGeometry>
        </mxCell>
        <mxCell id="1h_y3ZwGY21u_O0IPoco-49" value="" style="shape=tableRow;horizontal=0;startSize=0;swimlaneHead=0;swimlaneBody=0;fillColor=none;collapsible=0;dropTarget=0;points=[[0,0.5],[1,0.5]];portConstraint=eastwest;top=0;left=0;right=0;bottom=0;html=1;" vertex="1" parent="1h_y3ZwGY21u_O0IPoco-42">
          <mxGeometry y="90" width="180" height="30" as="geometry" />
        </mxCell>
        <mxCell id="1h_y3ZwGY21u_O0IPoco-50" value="" style="shape=partialRectangle;connectable=0;fillColor=none;top=0;left=0;bottom=0;right=0;editable=1;overflow=hidden;html=1;whiteSpace=wrap;" vertex="1" parent="1h_y3ZwGY21u_O0IPoco-49">
          <mxGeometry width="60" height="30" as="geometry">
            <mxRectangle width="60" height="30" as="alternateBounds" />
          </mxGeometry>
        </mxCell>
        <mxCell id="1h_y3ZwGY21u_O0IPoco-51" value="Titulo" style="shape=partialRectangle;connectable=0;fillColor=none;top=0;left=0;bottom=0;right=0;align=left;spacingLeft=6;overflow=hidden;html=1;whiteSpace=wrap;" vertex="1" parent="1h_y3ZwGY21u_O0IPoco-49">
          <mxGeometry x="60" width="120" height="30" as="geometry">
            <mxRectangle width="120" height="30" as="alternateBounds" />
          </mxGeometry>
        </mxCell>
        <mxCell id="1h_y3ZwGY21u_O0IPoco-55" style="edgeStyle=orthogonalEdgeStyle;rounded=0;orthogonalLoop=1;jettySize=auto;html=1;entryX=0;entryY=0.5;entryDx=0;entryDy=0;endArrow=ERoneToMany;endFill=0;" edge="1" parent="1" source="1h_y3ZwGY21u_O0IPoco-30" target="1h_y3ZwGY21u_O0IPoco-46">
          <mxGeometry relative="1" as="geometry" />
        </mxCell>
        <mxCell id="1h_y3ZwGY21u_O0IPoco-58" value="&lt;table xmlns=&quot;http://www.w3.org/1999/xhtml&quot; cellspacing=&quot;0&quot; cellpadding=&quot;0&quot; dir=&quot;ltr&quot; border=&quot;1&quot; style=&quot;table-layout:fixed;font-size:10pt;font-family:Arial;width:0px;border-collapse:collapse;border:none&quot;&gt;&lt;colgroup&gt;&lt;col width=&quot;100&quot;&gt;&lt;col width=&quot;100&quot;&gt;&lt;col width=&quot;100&quot;&gt;&lt;/colgroup&gt;&lt;tbody&gt;&lt;tr style=&quot;height:21px;&quot;&gt;&lt;td style=&quot;border-top:1px solid #000000;border-right:1px solid #000000;border-bottom:1px solid #000000;border-left:1px solid #000000;overflow:hidden;padding:2px 3px 2px 3px;vertical-align:bottom;text-align:center;&quot; rowspan=&quot;1&quot; colspan=&quot;3&quot; data-sheets-value=&quot;{&amp;quot;1&amp;quot;:2,&amp;quot;2&amp;quot;:&amp;quot;Filme&amp;quot;}&quot;&gt;Filme&lt;/td&gt;&lt;/tr&gt;&lt;tr style=&quot;height:21px;&quot;&gt;&lt;td style=&quot;border-right:1px solid #000000;border-bottom:1px solid #000000;border-left:1px solid #000000;overflow:hidden;padding:2px 3px 2px 3px;vertical-align:bottom;text-align:center;&quot; data-sheets-value=&quot;{&amp;quot;1&amp;quot;:2,&amp;quot;2&amp;quot;:&amp;quot;IdFilme&amp;quot;}&quot;&gt;IdFilme&lt;/td&gt;&lt;td style=&quot;border-right:1px solid #000000;border-bottom:1px solid #000000;overflow:hidden;padding:2px 3px 2px 3px;vertical-align:bottom;text-align:center;&quot; data-sheets-value=&quot;{&amp;quot;1&amp;quot;:2,&amp;quot;2&amp;quot;:&amp;quot;IdGenero&amp;quot;}&quot;&gt;IdGenero&lt;/td&gt;&lt;td style=&quot;border-right:1px solid #000000;border-bottom:1px solid #000000;overflow:hidden;padding:2px 3px 2px 3px;vertical-align:bottom;text-align:center;&quot; data-sheets-value=&quot;{&amp;quot;1&amp;quot;:2,&amp;quot;2&amp;quot;:&amp;quot;Nome filme&amp;quot;}&quot;&gt;Nome filme&lt;/td&gt;&lt;/tr&gt;&lt;tr style=&quot;height:21px;&quot;&gt;&lt;td style=&quot;border-right:1px solid #000000;border-bottom:1px solid #000000;border-left:1px solid #000000;overflow:hidden;padding:2px 3px 2px 3px;vertical-align:bottom;text-align:center;&quot; data-sheets-value=&quot;{&amp;quot;1&amp;quot;:3,&amp;quot;3&amp;quot;:1}&quot;&gt;1&lt;/td&gt;&lt;td style=&quot;border-right:1px solid #000000;border-bottom:1px solid #000000;overflow:hidden;padding:2px 3px 2px 3px;vertical-align:bottom;text-align:center;&quot; data-sheets-value=&quot;{&amp;quot;1&amp;quot;:3,&amp;quot;3&amp;quot;:3}&quot;&gt;3&lt;/td&gt;&lt;td style=&quot;border-right:1px solid #000000;border-bottom:1px solid #000000;overflow:hidden;padding:2px 3px 2px 3px;vertical-align:bottom;text-align:center;&quot; data-sheets-value=&quot;{&amp;quot;1&amp;quot;:2,&amp;quot;2&amp;quot;:&amp;quot;A freira&amp;quot;}&quot;&gt;A freira&lt;/td&gt;&lt;/tr&gt;&lt;tr style=&quot;height:21px;&quot;&gt;&lt;td style=&quot;border-right:1px solid #000000;border-bottom:1px solid #000000;border-left:1px solid #000000;overflow:hidden;padding:2px 3px 2px 3px;vertical-align:bottom;text-align:center;&quot; data-sheets-value=&quot;{&amp;quot;1&amp;quot;:3,&amp;quot;3&amp;quot;:2}&quot;&gt;2&lt;/td&gt;&lt;td style=&quot;border-right:1px solid #000000;border-bottom:1px solid #000000;overflow:hidden;padding:2px 3px 2px 3px;vertical-align:bottom;text-align:center;&quot; data-sheets-value=&quot;{&amp;quot;1&amp;quot;:3,&amp;quot;3&amp;quot;:2}&quot;&gt;2&lt;/td&gt;&lt;td style=&quot;border-right:1px solid #000000;border-bottom:1px solid #000000;overflow:hidden;padding:2px 3px 2px 3px;vertical-align:bottom;text-align:center;&quot; data-sheets-value=&quot;{&amp;quot;1&amp;quot;:2,&amp;quot;2&amp;quot;:&amp;quot;As Branquelas&amp;quot;}&quot;&gt;As Branquelas&lt;/td&gt;&lt;/tr&gt;&lt;/tbody&gt;&lt;/table&gt;" style="text;whiteSpace=wrap;html=1;" vertex="1" parent="1">
          <mxGeometry x="497" y="530" width="330" height="110" as="geometry" />
        </mxCell>
        <mxCell id="1h_y3ZwGY21u_O0IPoco-60" value="&lt;table xmlns=&quot;http://www.w3.org/1999/xhtml&quot; cellspacing=&quot;0&quot; cellpadding=&quot;0&quot; dir=&quot;ltr&quot; border=&quot;1&quot; style=&quot;table-layout:fixed;font-size:10pt;font-family:Arial;width:0px;border-collapse:collapse;border:none&quot;&gt;&lt;colgroup&gt;&lt;col width=&quot;65&quot;&gt;&lt;col width=&quot;94&quot;&gt;&lt;/colgroup&gt;&lt;tbody&gt;&lt;tr style=&quot;height:21px;&quot;&gt;&lt;td style=&quot;border-top:1px solid #000000;border-right:1px solid #000000;border-bottom:1px solid #000000;border-left:1px solid #000000;overflow:hidden;padding:2px 3px 2px 3px;vertical-align:bottom;text-align:center;&quot; rowspan=&quot;1&quot; colspan=&quot;2&quot; data-sheets-value=&quot;{&amp;quot;1&amp;quot;:2,&amp;quot;2&amp;quot;:&amp;quot;Genero&amp;quot;}&quot;&gt;Genero&lt;/td&gt;&lt;/tr&gt;&lt;tr style=&quot;height:21px;&quot;&gt;&lt;td style=&quot;border-right:1px solid #000000;border-bottom:1px solid #000000;border-left:1px solid #000000;overflow:hidden;padding:2px 3px 2px 3px;vertical-align:bottom;&quot; data-sheets-value=&quot;{&amp;quot;1&amp;quot;:2,&amp;quot;2&amp;quot;:&amp;quot;IdGenero&amp;quot;}&quot;&gt;IdGenero&lt;/td&gt;&lt;td style=&quot;border-right:1px solid #000000;border-bottom:1px solid #000000;overflow:hidden;padding:2px 3px 2px 3px;vertical-align:bottom;&quot; data-sheets-value=&quot;{&amp;quot;1&amp;quot;:2,&amp;quot;2&amp;quot;:&amp;quot;NomeGenero&amp;quot;}&quot;&gt;NomeGenero&lt;/td&gt;&lt;/tr&gt;&lt;tr style=&quot;height:21px;&quot;&gt;&lt;td style=&quot;border-right:1px solid #000000;border-bottom:1px solid #000000;border-left:1px solid #000000;overflow:hidden;padding:2px 3px 2px 3px;vertical-align:bottom;text-align:center;&quot; data-sheets-value=&quot;{&amp;quot;1&amp;quot;:3,&amp;quot;3&amp;quot;:2}&quot;&gt;2&lt;/td&gt;&lt;td style=&quot;border-right:1px solid #000000;border-bottom:1px solid #000000;overflow:hidden;padding:2px 3px 2px 3px;vertical-align:bottom;&quot; data-sheets-value=&quot;{&amp;quot;1&amp;quot;:2,&amp;quot;2&amp;quot;:&amp;quot;Comedia&amp;quot;}&quot;&gt;Comedia&lt;/td&gt;&lt;/tr&gt;&lt;tr style=&quot;height:21px;&quot;&gt;&lt;td style=&quot;border-right:1px solid #000000;border-bottom:1px solid #000000;border-left:1px solid #000000;overflow:hidden;padding:2px 3px 2px 3px;vertical-align:bottom;text-align:center;&quot; data-sheets-value=&quot;{&amp;quot;1&amp;quot;:3,&amp;quot;3&amp;quot;:3}&quot;&gt;3&lt;/td&gt;&lt;td style=&quot;border-right:1px solid #000000;border-bottom:1px solid #000000;overflow:hidden;padding:2px 3px 2px 3px;vertical-align:bottom;&quot; data-sheets-value=&quot;{&amp;quot;1&amp;quot;:2,&amp;quot;2&amp;quot;:&amp;quot;Terror&amp;quot;}&quot;&gt;Terror&lt;/td&gt;&lt;/tr&gt;&lt;/tbody&gt;&lt;/table&gt;" style="text;whiteSpace=wrap;html=1;" vertex="1" parent="1">
          <mxGeometry x="307" y="530" width="190" height="110" as="geometry" />
        </mxCell>
        <mxCell id="1h_y3ZwGY21u_O0IPoco-61" value="Fisico" style="rounded=0;whiteSpace=wrap;html=1;fillColor=#f8cecc;strokeColor=#b85450;" vertex="1" parent="1">
          <mxGeometry x="460" y="440" width="120" height="60" as="geometry" />
        </mxCell>
      </root>
    </mxGraphModel>
  </diagram>
</mxfile>
